<mxfile host="app.diagrams.net" modified="2022-05-06T08:50:50.293Z" agent="5.0 (Windows NT 10.0; Win64; x64) AppleWebKit/537.36 (KHTML, like Gecko) Chrome/101.0.4951.54 Safari/537.36" etag="zycXBjupuGKoxAxbCmru" version="17.4.6" type="github">
  <diagram id="MxLG8kqmJrbTg1Ni1noo" name="Page-1">
    <mxGraphModel dx="1422" dy="762" grid="1" gridSize="10" guides="1" tooltips="1" connect="1" arrows="1" fold="1" page="1" pageScale="1" pageWidth="1100" pageHeight="1700" math="0" shadow="0">
      <root>
        <mxCell id="0" />
        <mxCell id="1" parent="0" />
        <mxCell id="LlfF66JAiWyvZkjXCnsu-1" value="&lt;table border=&quot;1&quot; width=&quot;100%&quot; cellpadding=&quot;4&quot; style=&quot;width: 100% ; height: 100% ; border-collapse: collapse ; font-size: 14px&quot;&gt;&lt;tbody&gt;&lt;tr style=&quot;background-color: #a7c942 ; color: #ffffff ; border: 1px solid #98bf21&quot;&gt;&lt;th style=&quot;text-align: center ; font-size: 20px&quot;&gt;Feature&lt;/th&gt;&lt;th style=&quot;text-align: center&quot;&gt;&lt;font style=&quot;font-size: 20px&quot;&gt;Benefit hypothesis&lt;/font&gt;&lt;/th&gt;&lt;/tr&gt;&lt;tr style=&quot;border: 1px solid #98bf21&quot;&gt;&lt;td&gt;&lt;b&gt;Dynamic data accessibility with versioning and lineage&lt;/b&gt;&lt;/td&gt;&lt;td&gt;&lt;b&gt;Be able to reproduce results and track changes over time&lt;/b&gt;&lt;/td&gt;&lt;/tr&gt;&lt;tr style=&quot;border: 1px solid #98bf21&quot;&gt;&lt;td&gt;&lt;b&gt;External API&#39;s for all data relevant to share and update with externals/vendors&lt;/b&gt;&lt;/td&gt;&lt;td&gt;&lt;b&gt;Be able to follow up projects with externals, remove manual steps in data transfer to limit error/mistakes&lt;/b&gt;&lt;/td&gt;&lt;/tr&gt;&lt;tr&gt;&lt;td&gt;&lt;b&gt;Internal API&#39;s for all data we integrate and produce with clear mandate over data contracts&lt;br&gt;&lt;/b&gt;&lt;/td&gt;&lt;td&gt;&lt;b&gt;&lt;span style=&quot;background-color: rgb(255 , 255 , 255)&quot;&gt;Be able to share results and integrated into other workstreams, and build solid data pipelines of data with quality&lt;/span&gt;&lt;br&gt;&lt;/b&gt;&lt;/td&gt;&lt;/tr&gt;&lt;tr&gt;&lt;td&gt;&lt;b&gt;&lt;span style=&quot;background-color: rgb(255 , 255 , 255)&quot;&gt;A project tool that tracks concept design changes over time, which combinations are main and which are alternative scenarios&lt;/span&gt;&lt;br&gt;&lt;/b&gt;&lt;/td&gt;&lt;td&gt;&lt;b&gt;&lt;span style=&quot;background-color: rgb(255 , 255 , 255)&quot;&gt;Being able to know which combination of the wind park is optimal for site location for energy production&lt;/span&gt;&lt;br&gt;&lt;/b&gt;&lt;/td&gt;&lt;/tr&gt;&lt;tr&gt;&lt;td&gt;&lt;b&gt;&amp;nbsp;A project tool that allows user to establish many sites to compare business value and site risks&lt;/b&gt;&lt;/td&gt;&lt;td&gt;&lt;b&gt;Being able to create several sites and compare key parameters from each site, energy production, risks for capex, risks for opex in early phase&lt;br&gt;&lt;/b&gt;&lt;/td&gt;&lt;/tr&gt;&lt;tr&gt;&lt;td&gt;&lt;b&gt;A seamless transition between application and optimization tool&lt;/b&gt;&lt;/td&gt;&lt;td&gt;&lt;b&gt;The user being able to do more work on an identified site to optimize layout, energy production or minimize losses&lt;/b&gt;&lt;/td&gt;&lt;/tr&gt;&lt;tr&gt;&lt;td&gt;&lt;b&gt;Fast and trustworthy overview of data availability at a given site, quality of data and uncertainties&lt;/b&gt;&lt;/td&gt;&lt;td&gt;&lt;b&gt;Being able to make decisions on what more information to integrate, buy, measure, etc.&lt;/b&gt;&lt;/td&gt;&lt;/tr&gt;&lt;tr&gt;&lt;td&gt;&lt;b&gt;Dynamic and extensive wind analysis capabilities integrated into solution with consistency in wind analysis methods applied&lt;/b&gt;&lt;/td&gt;&lt;td&gt;&lt;b&gt;Being able to trust insights from analysis applied several places and being able to trust the difference between automated analysis and adjusted analysis from SME&#39;s&lt;/b&gt;&lt;/td&gt;&lt;/tr&gt;&lt;tr&gt;&lt;td&gt;&lt;b&gt;Lineage and Provenance, Benchmarking of results, and iteration of methods assumptions&lt;/b&gt;&lt;/td&gt;&lt;td&gt;&lt;b&gt;When a project is build we will be able to compare actual site conditions with assumptions in analysis and model assumptions&lt;/b&gt;&lt;/td&gt;&lt;/tr&gt;&lt;tr&gt;&lt;td&gt;&lt;b&gt;Displaying team in a project tool with transparancies in technical deliveries and what is approved or not for decisions&lt;/b&gt;&lt;/td&gt;&lt;td&gt;&lt;b&gt;Being able to to more efficient handovers, see who contributes to what and what decisions where made at decision gates. Eases handover and reduces doubelwork&lt;/b&gt;&lt;/td&gt;&lt;/tr&gt;&lt;tr&gt;&lt;td&gt;&lt;b&gt;Automation of reports&lt;/b&gt;&lt;/td&gt;&lt;td&gt;&lt;b&gt;Benefit of reducing time spent reporting&lt;/b&gt;&lt;/td&gt;&lt;/tr&gt;&lt;/tbody&gt;&lt;/table&gt;" style="text;html=1;overflow=fill;rounded=0;fillColor=default;" parent="1" vertex="1">
          <mxGeometry x="110" y="30" width="1830" height="1190" as="geometry" />
        </mxCell>
      </root>
    </mxGraphModel>
  </diagram>
</mxfile>
